HIERARCHY
ROOT hip
{
	OFFSET 0.000000 0.000000 0.000000 
	CHANNELS 6 Xposition Yposition Zposition Xrotation Zrotation Yrotation
	JOINT abdomen
	{
		OFFSET 0.000000 3.402643 0.000000 
		CHANNELS 3 Xrotation Zrotation Yrotation
		JOINT chest
		{
			OFFSET 0.000000 8.438565 -0.680529 
			CHANNELS 3 Xrotation Zrotation Yrotation
			JOINT neck
			{
				OFFSET 0.000000 10.207942 -0.272212 
				CHANNELS 3 Xrotation Zrotation Yrotation
				JOINT head
				{
					OFFSET 0.000000 3.130431 0.000000 
					CHANNELS 3 Xrotation Zrotation Yrotation
					End Site
					{
						OFFSET 0.000000 3.130435 0.000000 
					}
				}
			}
			JOINT lCollar
			{
				OFFSET 3.470700 6.669187 -0.816635 
				CHANNELS 3 Yrotation Zrotation Xrotation
				JOINT lShldr
				{
					OFFSET 3.198488 0.000000 0.000000 
					CHANNELS 3 Zrotation Yrotation Xrotation
					JOINT lForeArm
					{
						OFFSET 10.139888 0.000000 0.000000 
						CHANNELS 3 Yrotation Zrotation Xrotation
						JOINT lHand
						{
							OFFSET 8.370511 0.000000 0.000000 
							CHANNELS 3 Zrotation Yrotation Xrotation
							End Site
							{
								OFFSET 4.083176 0.000000 0.000000 
							}
						}
					}
				}
			}
			JOINT rCollar
			{
				OFFSET -3.470700 6.669187 -0.816635 
				CHANNELS 3 Yrotation Zrotation Xrotation
				JOINT rShldr
				{
					OFFSET -3.198488 0.000000 0.000000 
					CHANNELS 3 Zrotation Yrotation Xrotation
					JOINT rForeArm
					{
						OFFSET -10.139888 0.000000 0.000000 
						CHANNELS 3 Yrotation Zrotation Xrotation
						JOINT rHand
						{
							OFFSET -8.370511 0.000000 0.000000 
							CHANNELS 3 Zrotation Yrotation Xrotation
							End Site
							{
								OFFSET -4.083176 0.000000 0.000000 
							}
						}
					}
				}
			}
		}
	}
	JOINT lThigh
	{
		OFFSET 5.308129 -1.633274 1.361059 
		CHANNELS 3 Xrotation Zrotation Yrotation
		JOINT lShin
		{
			OFFSET -2.041588 -20.007561 0.000000 
			CHANNELS 3 Xrotation Zrotation Yrotation
			JOINT lFoot
			{
				OFFSET 0.000000 -19.190928 -1.224953 
				CHANNELS 3 Xrotation Yrotation Zrotation
				End Site
				{
					OFFSET 0.000000 -2.449906 4.627600 
				}
			}
		}
	}
	JOINT rThigh
	{
		OFFSET -5.308129 -1.633274 1.361059 
		CHANNELS 3 Xrotation Zrotation Yrotation
		JOINT rShin
		{
			OFFSET 2.041588 -20.007561 0.000000 
			CHANNELS 3 Xrotation Zrotation Yrotation
			JOINT rFoot
			{
				OFFSET 0.000000 -19.190928 -1.224953 
				CHANNELS 3 Xrotation Yrotation Zrotation
				End Site
				{
					OFFSET 0.000000 -2.449906 4.627600 
				}
			}
		}
	}
}
MOTION
Frames: 13
Frame Time: 0.033333
-0.008708 50.034748 1.394491 2.130187 0.311000 5.615364 0.000000 0.000000 0.000000 -3.245217 0.341783 -0.507804 0.718545 -0.419884 -0.771535 7.587095 1.015570 -0.595783 -5.914419 -5.637573 -2.587205 -19.345299 10.537148 -10.118836 -18.081326 -3.290231 11.735467 -0.480756 1.800421 -3.470429 5.079956 3.858542 -2.565309 16.087631 -10.178566 -3.068299 8.813307 5.017121 17.809137 -3.753652 6.376180 -3.683512 4.881104 7.557577 6.524712 -2.283768 -2.496699 12.724156 -2.324134 0.131787 -6.777074 2.020072 -8.520828 -7.431350 1.590822 3.828387 -10.534694 -3.733980 -0.195832 5.321889 
-0.006198 50.047329 1.355965 2.279182 0.350002 5.400528 0.000000 0.000000 0.000000 -3.352661 0.380847 -0.458974 1.117566 -0.380835 -0.644582 7.436698 1.347579 -0.615294 -5.558805 -5.023399 -2.635283 -18.935013 9.804394 -11.811045 -17.556274 -2.802105 10.460214 0.504523 1.517784 -3.471841 4.792635 3.056064 -2.612412 14.972972 -8.200378 -4.549737 6.280630 4.767526 16.266249 -5.004354 6.610718 -3.798150 4.773677 7.517645 6.481045 -2.328037 -2.494148 12.971128 -2.310606 0.140155 -6.941730 1.834506 -8.502275 -7.241027 1.434996 3.689249 -10.555595 -3.563051 -0.220881 5.372153 
-0.028572 50.051121 1.301169 2.461631 0.223697 5.166090 0.000000 0.000000 0.000000 -3.422350 0.546857 -0.458963 1.457312 -0.214832 -0.595736 7.381281 1.142522 -0.566488 -5.176044 -4.336239 -2.644078 -19.679190 9.151040 -14.487549 -17.931877 -1.938070 9.929680 0.622449 1.662138 -3.486532 4.630555 2.873879 -2.661576 13.916039 -7.144882 -6.173740 6.168045 4.537852 13.027047 -5.539566 6.057600 -3.823137 4.587096 7.750467 6.753674 -2.360905 -2.701015 12.931233 -2.231645 0.148630 -6.884019 1.639964 -8.262225 -6.924031 1.143277 3.525858 -10.672776 -3.335343 -0.215094 5.360327 
-0.076218 50.074791 1.230034 2.596925 0.107041 4.824228 0.000000 0.000000 0.000000 -3.412942 0.712875 -0.380830 1.797404 -0.058591 -0.517588 7.355811 0.859342 -0.497991 -4.782310 -4.112320 -2.615031 -20.862360 8.792494 -17.371592 -19.267040 -1.059618 9.432851 0.644833 1.937422 -3.482040 4.645303 2.980732 -2.661551 13.757395 -6.832664 -8.099895 7.630636 3.955852 12.396548 -6.720549 5.627602 -3.908179 4.449267 7.924328 6.841521 -2.361863 -2.711365 12.980442 -2.226017 0.120897 -7.010690 1.679103 -7.997254 -6.636122 0.333496 3.389717 -10.689021 -2.820410 -0.149012 5.231409 
-0.162445 50.113297 1.152361 2.659356 0.038939 4.560553 0.000000 0.000000 0.000000 -3.325037 0.839830 -0.322231 2.343965 -0.029296 -0.419927 7.080925 0.917925 -0.556569 -5.051625 -4.350234 -2.546813 -23.010679 9.275231 -20.597382 -21.876467 -0.116705 7.982306 1.209271 2.765063 -3.493143 4.900868 3.285752 -2.612589 14.664102 -7.556916 -10.688403 11.091463 3.120503 11.249060 -8.145005 5.044060 -3.980557 4.332418 8.071680 6.955685 -2.320415 -2.709959 13.280621 -2.147563 0.110119 -7.076346 1.580094 -7.748656 -6.398991 0.069711 3.304061 -10.735332 -2.561739 -0.138280 5.094666 
-0.291354 50.131039 1.049499 2.913516 -0.087657 4.179682 0.000000 0.000000 0.000000 -3.333954 0.947258 -0.234343 2.733661 0.126951 -0.322265 6.927242 0.703096 -0.517539 -5.445953 -4.788624 -2.585622 -26.391108 9.949264 -24.307070 -25.533455 0.829128 6.063836 3.078748 3.490371 -3.492806 5.435571 4.368718 -2.692229 16.432140 -9.113145 -13.585357 16.935062 2.266374 8.162191 -9.794255 3.352148 -3.988412 3.951465 8.256888 6.934077 -2.264197 -2.594251 13.673573 -1.993259 0.123935 -7.267011 0.995449 -7.449101 -6.051168 0.234578 3.229163 -10.703603 -2.525808 -0.124660 4.931121 
-0.461575 50.149387 0.915442 3.245564 0.048711 3.964851 0.000000 0.000000 0.000000 -3.335059 0.859361 -0.331994 3.026918 0.078124 -0.312500 7.194469 0.468742 -0.341785 -6.267851 -6.470762 -2.697036 -29.637676 10.921648 -27.160259 -29.528980 1.431893 3.761930 6.449658 3.800849 -3.474887 5.875807 5.475462 -2.763359 20.057974 -10.313603 -17.752344 23.468021 1.166065 4.908286 -11.942492 1.711553 -3.961687 3.434839 8.209231 6.699893 -2.175335 -2.447395 14.220060 -1.776938 0.111899 -7.403327 0.408988 -7.395743 -5.862170 0.263353 3.221206 -10.672805 -2.362014 -0.154009 4.685271 
-0.675383 50.151154 0.797715 3.330372 0.155926 3.691445 0.000000 0.000000 0.000000 -3.034011 0.869115 -0.439403 3.125279 -0.078125 -0.205091 8.017012 0.302734 -0.107420 -7.402451 -9.233032 -2.631924 -32.502724 12.305966 -28.853035 -33.987644 1.690001 0.680544 8.428214 3.436922 -3.493481 6.017547 7.655526 -2.609273 23.703142 -10.913808 -20.792925 30.333420 0.578803 2.107071 -14.889482 0.641903 -3.978749 3.210419 8.248094 6.584227 -2.118121 -2.262843 14.806530 -1.548679 0.108102 -7.693223 0.145358 -7.228595 -5.674536 0.167337 3.216094 -10.629917 -2.206644 -0.103135 4.356302 
-0.951871 50.164333 0.657025 3.447748 0.311858 3.671980 0.000000 0.000000 0.000000 -2.634419 0.673787 -0.634722 2.773662 -0.048828 -0.263680 9.580268 0.058593 0.185557 -9.146118 -12.034044 -2.605334 -35.937389 14.110071 -29.315405 -38.799400 1.668833 -1.613399 9.428397 3.397790 -3.489678 7.099559 10.406367 -2.505056 26.142555 -12.847609 -19.007854 36.332329 1.304886 -3.389345 -18.449015 0.424268 -4.072690 2.829755 8.315598 6.470385 -1.999265 -2.105875 15.283153 -1.239137 0.089510 -8.007314 -0.361490 -7.129832 -5.631548 0.595590 3.329083 -10.524491 -2.328829 -0.102274 3.979443 
-1.258595 50.130348 0.520057 3.292855 0.467715 3.808785 0.000000 0.000000 0.000000 -2.068698 0.576114 -0.810506 2.764431 -0.117185 -0.371113 10.078080 -0.009766 0.263672 -10.366402 -13.758218 -2.327015 -40.819633 15.385682 -27.639597 -42.874710 1.331777 -1.738947 9.042006 4.794681 -3.409211 7.666557 12.086435 -2.171821 30.439066 -14.341369 -16.705740 41.623791 1.612498 -3.676087 -19.454428 -0.654188 -3.932503 2.556626 8.462193 6.363757 -1.670377 -1.902456 15.248966 -1.025851 0.061570 -8.379218 -1.434791 -7.151152 -5.679976 2.937093 3.539599 -10.225205 -3.528990 -0.140919 3.703596 
-1.589450 50.086319 0.369758 3.259233 0.389704 3.935655 0.000000 0.000000 0.000000 -1.564719 0.732324 -0.937548 2.627323 -0.058593 -0.361338 10.173683 -0.292961 0.410151 -9.976322 -13.730266 -1.812908 -46.503956 15.611944 -21.827362 -45.684006 0.310987 0.068223 5.467123 5.666243 -3.424163 7.925407 13.397627 -1.862246 34.206875 -15.229407 -12.361470 44.690910 2.071412 1.589461 -15.487273 -0.983794 -3.801464 1.941153 8.812952 6.241653 -0.771921 -1.580117 15.162721 -1.121180 0.083796 -8.980775 -2.498591 -6.947124 -5.677352 4.793920 3.846439 -10.291430 -4.394857 -0.161570 3.280643 
-1.949268 50.066181 0.229262 3.342230 0.428518 4.228690 0.000000 0.000000 0.000000 -1.235444 0.800646 -1.054721 2.509885 -0.019531 -0.351566 9.976740 -0.390607 0.546862 -10.411123 -14.488631 -1.589023 -50.763779 16.252504 -16.385998 -47.521328 -0.451221 4.114625 -1.639529 6.015009 -3.570892 8.250690 14.871495 -1.732157 37.056984 -16.112509 -6.816833 46.636475 2.693527 8.241003 -9.880210 -0.665315 -3.700649 1.277819 9.057878 6.037740 -0.039835 -1.277287 14.904594 -1.126576 0.100900 -9.529451 -3.251040 -6.774324 -5.726001 5.865495 4.117075 -10.456699 -4.868728 -0.142369 2.847621 
-2.332574 50.047947 0.072751 3.840772 0.759234 4.629405 0.000000 0.000000 0.000000 -1.302794 0.644385 -1.220736 2.394116 -0.214838 -0.410190 9.818975 -0.439422 0.683574 -11.211864 -15.748454 -1.854178 -53.951584 17.206713 -11.897423 -48.708420 -1.293409 6.104668 -8.372937 7.127384 -3.833780 8.553149 15.438071 -1.886333 40.827278 -16.852762 -1.701498 47.804539 3.593174 11.737241 -6.334616 -0.561289 -3.632200 0.262758 8.989703 5.587965 0.518579 -1.036365 14.776299 -1.096302 0.112412 -10.016280 -4.646164 -6.909521 -5.801315 7.493209 4.339303 -10.751403 -5.679020 -0.152393 2.434880 
